REM GENRE Piratical
REM DATE 2011
REM COMMENT "Rubyripper 0.6.0"
REM DISCID aa0b2a0d
PERFORMER "Alestorm"
TITLE "Back Through Time"
FILE "Back Through Time.flac" WAVE
  TRACK 01 AUDIO
    TITLE "Back Through Time"
    PERFORMER "Alestorm"
    INDEX 01 00:00:00
  TRACK 02 AUDIO
    TITLE "Shipwrecked"
    PERFORMER "Alestorm"
    INDEX 00 05:02:31
    INDEX 01 05:03:20
  TRACK 03 AUDIO
    TITLE "The Sunk'n Norwegian"
    PERFORMER "Alestorm"
    INDEX 00 08:32:36
    INDEX 01 08:33:63
  TRACK 04 AUDIO
    TITLE "Midget Saw"
    PERFORMER "Alestorm"
    INDEX 00 12:39:69
    INDEX 01 12:40:69
  TRACK 05 AUDIO
    TITLE "Buckfast Powersmash"
    PERFORMER "Alestorm"
    INDEX 00 15:58:47
    INDEX 01 15:59:19
  TRACK 06 AUDIO
    TITLE "Scraping the Barrel"
    PERFORMER "Alestorm"
    INDEX 00 18:31:38
    INDEX 01 18:32:37
  TRACK 07 AUDIO
    TITLE "Rum"
    PERFORMER "Alestorm"
    INDEX 00 23:11:25
    INDEX 01 23:12:11
  TRACK 08 AUDIO
    TITLE "Swashbuckled"
    PERFORMER "Alestorm"
    INDEX 00 26:40:07
    INDEX 01 26:41:12
  TRACK 09 AUDIO
    TITLE "Rumpelkombo"
    PERFORMER "Alestorm"
    INDEX 00 30:33:44
    INDEX 01 30:33:73
  TRACK 10 AUDIO
    TITLE "Barrett's Privateers"
    PERFORMER "Alestorm"
    INDEX 00 30:39:73
    INDEX 01 30:40:51
  TRACK 11 AUDIO
    TITLE "Death Throes of the Terrorsquid"
    PERFORMER "Alestorm"
    INDEX 00 35:19:52
    INDEX 01 35:20:29
  TRACK 12 AUDIO
    TITLE "I Am a Cider Drinker"
    PERFORMER "Alestorm"
    INDEX 00 43:06:26
    INDEX 01 43:06:70
  TRACK 13 AUDIO
    TITLE "You Are a Pirate"
    PERFORMER "Alestorm"
    INDEX 00 46:05:44
    INDEX 01 46:05:59
